<?xml version="1.0"?>
<svg xmlns="http://www.w3.org/2000/svg" xmlns:xlink="http://www.w3.org/1999/xlink" xmlns:svgjs="http://svgjs.com/svgjs"
     version="1.1" width="40" height="40" x="0" y="0" viewBox="0 0 32 32" style="enable-background:new 0 0 512 512"
     xml:space="preserve" class=""><g><g xmlns="http://www.w3.org/2000/svg"><path d="m30.93333 4.26667h-29.86666c-.58907 0-1.06667.4776-1.06667 1.06666s.4776 1.06667 1.06667 1.06667h29.86666c.58907 0 1.06667-.4776 1.06667-1.06667s-.4776-1.06666-1.06667-1.06666z" fill="#fff"/><path
        d="m30.93333 14.93333h-29.86666c-.58907 0-1.06667.47761-1.06667 1.06667s.4776 1.06667 1.06667 1.06667h29.86666c.58907 0 1.06667-.47761 1.06667-1.06667s-.4776-1.06667-1.06667-1.06667z"
        fill="#fff" /><path
        d="m30.93333 25.6h-29.86666c-.58907 0-1.06667.4776-1.06667 1.06667 0 .58906.4776 1.06667 1.06667 1.06667h29.86666c.58906 0 1.06667-.4776 1.06667-1.06667s-.4776-1.06667-1.06667-1.06667z"
        fill="#fff"/></g></g></svg>
